@startuml
'https://plantuml.com/class-diagram

interface SetImplementator<T>{
+ void T add(T data)
+ T get(int index)
+ remove(int index)
}

abstract class SequenceAbstraction<T>{
+void push(T data)
+void T pop()
+void clear()
}

SequenceAbstraction --> "im"SetImplementator
SetImplementator <|.. MyArray
SetImplementator <|.. MyList

SequenceAbstraction <|-- MyStack
SequenceAbstraction <|-- MyQueue
@enduml